<?xml version="1.0" encoding="UTF-8"?>
<svg width="27px" height="17px" viewBox="0 0 27 17" version="1.1" xmlns="http://www.w3.org/2000/svg" xmlns:xlink="http://www.w3.org/1999/xlink">
    <!-- Generator: Sketch 53 (72520) - https://sketchapp.com -->
    <title>behance</title>
    <desc>Created with Sketch.</desc>
    <g id="Page-1" stroke="none" stroke-width="1" fill="none" fill-rule="evenodd">
        <g id="behance" fill="#DBDBDB" fill-rule="nonzero">
            <path d="M24.7497327,2.16 L16.8748178,2.16 L16.8748178,0 L24.7497327,0 L24.7497327,2.16 Z M26.6914617,12.96 C26.1942171,14.36076 24.4088614,16.2 20.9528988,16.2 C17.4946861,16.2 14.6934663,14.33268 14.6934663,10.071 C14.6934663,5.8482 17.3090631,3.6774 20.8426499,3.6774 C24.3098625,3.6774 26.4270896,5.60196 26.8894596,8.45748 C26.9772087,9.00396 27.0120833,9.74052 26.9963335,10.76868 L17.966056,10.76868 C18.1123044,14.23656 21.8843886,14.34564 23.1275003,12.96 L26.6914617,12.96 Z M18.0448051,8.64 L23.6303699,8.64 C23.5122461,6.96924 22.3523836,6.24348 20.8437749,6.24348 C19.1945427,6.24348 18.2821776,7.07292 18.0448051,8.64 Z M7.27417144,16.18704 L1.77635684e-15,16.18704 L1.77635684e-15,0.02268 L7.82204053,0.02268 C13.982474,0.11016 14.0994728,5.9022 10.8820075,7.48116 C14.7755905,8.84196 14.906089,16.18704 7.27417144,16.18704 Z M3.37496355,6.48 L7.40692001,6.48 C10.2283895,6.48 10.6761347,3.24 7.0559238,3.24 L3.37496355,3.24 L3.37496355,6.48 Z M7.18979735,9.72 L3.37496355,9.72 L3.37496355,12.97728 L7.13354796,12.97728 C10.5703859,12.97728 10.3600131,9.72 7.18979735,9.72 L7.18979735,9.72 Z" id="Shape"></path>
        </g>
    </g>
</svg>