<?xml version="1.0" encoding="UTF-8"?>
<svg width="25px" height="25px" viewBox="0 0 25 25" version="1.1" xmlns="http://www.w3.org/2000/svg" xmlns:xlink="http://www.w3.org/1999/xlink">
    <!-- Generator: Sketch 53 (72520) - https://sketchapp.com -->
    <title>Group</title>
    <desc>Created with Sketch.</desc>
    <g id="Page-1" stroke="none" stroke-width="1" fill="none" fill-rule="evenodd">
        <g id="codepen_wh" fill="#DBDBDB">
            <g id="Group">
                <polygon id="Fill-1" points="6.11556962 11.3748945 6.11556962 13.5938291 7.77432489 12.4843882"></polygon>
                <polygon id="Fill-2" points="11.8408439 9.7642616 11.8408439 6.67206751 6.64638186 10.1347785 8.96674051 11.6869937"></polygon>
                <polygon id="Fill-3" points="18.3613344 10.1347732 13.1668196 6.67206224 13.1668196 9.76425633 16.041134 11.6869884"></polygon>
                <polygon id="Fill-4" points="6.64636603 14.8339662 11.8408281 18.2966772 11.8408281 15.2044304 8.96677743 13.282173"></polygon>
                <polygon id="Fill-5" points="13.1668038 15.2044515 13.1668038 18.2966983 18.3613186 14.8339873 16.0411181 13.2821941"></polygon>
                <polygon id="Fill-6" points="12.5037605 10.9159441 10.1589821 12.4843513 12.5037605 14.0528112 14.8486973 12.4843513"></polygon>
                <g id="Group-11">
                    <path d="M20.217885,14.834789 C20.217885,14.8640084 20.2158281,14.8928059 20.2119778,14.9216034 C20.2105538,14.9309388 20.2082859,14.9406962 20.2067036,14.9500316 C20.2032753,14.9687025 20.2000053,14.9873734 20.1951002,15.0056224 C20.1923049,15.0165928 20.1882437,15.0270886 20.1847627,15.0376899 C20.1794884,15.0538819 20.1742669,15.0701793 20.1677795,15.0864241 C20.1632964,15.0973418 20.1577584,15.1078903 20.1529589,15.1184388 C20.1458386,15.1334705 20.1385074,15.1480274 20.1304378,15.1626899 C20.1244778,15.1728165 20.1178323,15.1829958 20.1115032,15.1931224 C20.1025897,15.2069409 20.0935179,15.2203376 20.0835496,15.2333122 C20.0762184,15.2434388 20.0687289,15.2527743 20.0606593,15.2621097 C20.050269,15.2742405 20.0392985,15.2864241 20.0277479,15.2977637 C20.0189926,15.30673 20.0104483,15.3156435 20.0013766,15.3237658 C19.989404,15.3347363 19.9766403,15.3452848 19.9636656,15.3554114 C19.9538555,15.3631646 19.9441508,15.370865 19.9337605,15.3781435 C19.9299631,15.3806224 19.9265348,15.3838397 19.9226319,15.3862658 L12.8716297,20.0871097 C12.7602373,20.1613713 12.6321783,20.1986603 12.50375,20.1986603 C12.3757437,20.1986603 12.2474736,20.1613713 12.1360812,20.0871097 L5.08486814,15.3862658 C5.08117616,15.3838397 5.07774789,15.3806224 5.07410865,15.3781435 C5.06371835,15.370865 5.05380274,15.3631646 5.04404536,15.3554114 C5.03107068,15.3452848 5.01846519,15.3347363 5.00649262,15.3237658 C4.99736814,15.3156435 4.98866561,15.30673 4.97991034,15.2977637 C4.9683597,15.2864241 4.95765295,15.2742405 4.94684072,15.2621097 C4.9391403,15.2527743 4.93143987,15.2434388 4.92416139,15.2333122 C4.91440401,15.2203376 4.90506857,15.2069409 4.89631329,15.1931224 C4.88961498,15.1829958 4.88333861,15.1728165 4.87727321,15.1626899 C4.86915084,15.1480274 4.86187236,15.1334705 4.85475211,15.1184388 C4.84968882,15.1078903 4.84457278,15.0973418 4.83993143,15.0864241 C4.83344409,15.0701793 4.82795886,15.0538819 4.82289557,15.0376899 C4.81925633,15.0270886 4.81561709,15.0165928 4.81255802,15.0056224 C4.80765295,14.9873734 4.80443565,14.9687025 4.80095464,14.9500316 C4.79937236,14.9406962 4.7969462,14.9309388 4.79568038,14.9216034 C4.79183017,14.8928059 4.78961498,14.8640084 4.78961498,14.834789 L4.78961498,10.1339451 C4.78961498,10.1047257 4.79183017,10.0759283 4.79568038,10.0475 C4.7969462,10.0377954 4.79937236,10.0284599 4.80095464,10.0187025 C4.80443565,10.0000316 4.80765295,9.98136076 4.81255802,9.96311181 C4.81561709,9.95214135 4.81925633,9.94159283 4.82289557,9.9310443 C4.82795886,9.91479958 4.83344409,9.89860759 4.83993143,9.88273207 C4.84457278,9.87181435 4.84968882,9.86084388 4.85475211,9.85029536 C4.86187236,9.83526371 4.86915084,9.82065401 4.87727321,9.80646624 C4.88333861,9.79591772 4.88961498,9.78579114 4.89631329,9.77561181 C4.90506857,9.76184599 4.91440401,9.74844937 4.92416139,9.73542194 C4.93143987,9.7257173 4.9391403,9.71595992 4.94684072,9.70667722 C4.95765295,9.69449367 4.9683597,9.68231013 4.97991034,9.67091772 C4.98866561,9.66200422 4.99736814,9.65309072 5.00649262,9.64496835 C5.01846519,9.63399789 5.03107068,9.62344937 5.04404536,9.61327004 C5.05380274,9.60556962 5.06371835,9.5978692 5.07410865,9.59059072 C5.07774789,9.58811181 5.08117616,9.58489451 5.08486814,9.58246835 L12.1360812,4.88162447 C12.358866,4.73310127 12.6487922,4.73310127 12.8716297,4.88162447 L19.9226319,9.58246835 C19.9265348,9.58489451 19.9299631,9.58811181 19.9337605,9.59059072 C19.9441508,9.5978692 19.9538555,9.60556962 19.9636656,9.61327004 C19.9766403,9.62344937 19.989404,9.63399789 20.0013766,9.64496835 C20.0104483,9.65309072 20.0189926,9.66200422 20.0277479,9.67091772 C20.0392985,9.68231013 20.050269,9.69449367 20.0606593,9.70667722 C20.0687289,9.71595992 20.0762184,9.7257173 20.0835496,9.73542194 C20.0935179,9.74844937 20.1025897,9.76184599 20.1115032,9.77561181 C20.1178323,9.78579114 20.1244778,9.79591772 20.1304378,9.80646624 C20.1385074,9.82065401 20.1458386,9.83526371 20.1529589,9.85029536 C20.1577584,9.86084388 20.1632964,9.87181435 20.1677795,9.88273207 C20.1742669,9.89860759 20.1794884,9.91479958 20.1847627,9.9310443 C20.1882437,9.94159283 20.1923049,9.95214135 20.1951002,9.96311181 C20.2000053,9.98136076 20.2032753,10.0000316 20.2067036,10.0187025 C20.2082859,10.0284599 20.2105538,10.0377954 20.2119778,10.0475 C20.2158281,10.0759283 20.217885,10.1047257 20.217885,10.1339451 L20.217885,14.834789 Z M12.50375,0.00815400844 C5.61361287,0.00815400844 0.0276951477,5.59386076 0.0276951477,12.4843671 C0.0276951477,19.3749262 5.61361287,24.9603692 12.50375,24.9603692 C19.3943091,24.9603692 24.9799631,19.3749262 24.9799631,12.4843671 C24.9799631,5.59386076 19.3943091,0.00815400844 12.50375,0.00815400844 L12.50375,0.00815400844 Z" id="Fill-7"></path>
                    <polygon id="Fill-9" points="18.8921044 13.5938449 18.8921044 11.3749103 17.2336129 12.4843513"></polygon>
                </g>
            </g>
        </g>
    </g>
</svg>