<svg xmlns="http://www.w3.org/2000/svg" viewBox="0 0 86 86"><defs><style>.cls-1{fill:#231f20;}.cls-2{fill:#fff;}</style></defs><title>icon</title><g id="Layer_4" data-name="Layer 4"><polygon class="cls-1" points="43.02 55.12 70.14 82.85 72.69 82.85 45.5 55.12 43.02 55.12"/><path class="cls-1" d="M72.85,82.92H70.12l0,0L42.86,55.06h2.67Zm-2.67-.13h2.36L45.48,55.19h-2.3Z"/><path d="M56.87,4.33H43.78L37.62,40H36.25L42.4,4.33h-13L29.54,3H57.05Z"/><path d="M37.91,40.32H35.85L42,4.67H29l.27-2.05h28.2l-.27,2.05H44.06Zm-1.26-.68h.68L43.49,4H56.57l.09-.69H29.83L29.74,4H42.81Z"/><path d="M64.75,36.6h-18l-2.95,17h20.5L64.07,55H42.14l6.43-37H70.45l-.2,1.37H49.72L47,35.23h18Z"/><path class="cls-1" d="M64.36,55.3H42.26l-.46-.45L48.29,17.6H70.84l-.3,2.05H50L47.35,34.89h18l-.27,2.05H47L44.18,53.25H64.66Zm-21.81-.68H63.77l.1-.69H43.37l3.07-17.67h18l.09-.69h-18L49.44,19H70l.1-.69H48.86Z"/><path d="M28.88,82.69l6.43-37h9.84a13.37,13.37,0,0,1,4.15.66,11.71,11.71,0,0,1,3.34,1.74,11.08,11.08,0,0,1,2.49,2.62A13.34,13.34,0,0,1,56.77,54a15,15,0,0,1,.72,3.81,18.7,18.7,0,0,1-.2,4.11l-.76,4.53a21.73,21.73,0,0,1-2.1,6.2,20,20,0,0,1-3.79,5.15,17.81,17.81,0,0,1-5.24,3.55A15.86,15.86,0,0,1,39,82.69ZM36.46,47l-6,34.28H39A14.62,14.62,0,0,0,44.81,80a16.88,16.88,0,0,0,4.82-3.26,18.47,18.47,0,0,0,3.52-4.7,19.87,19.87,0,0,0,2-5.65l.81-4.6a15.81,15.81,0,0,0,0-5.47,12.25,12.25,0,0,0-1.84-4.7,10.35,10.35,0,0,0-3.62-3.32A11.14,11.14,0,0,0,45.16,47Z"/><path class="cls-1" d="M28.88,83h-.4L35,45.32H45.16a13.77,13.77,0,0,1,4.25.68,12.1,12.1,0,0,1,3.44,1.79,11.47,11.47,0,0,1,2.57,2.7,13.75,13.75,0,0,1,1.67,3.39,15.42,15.42,0,0,1,.74,3.9A19.12,19.12,0,0,1,57.62,62l-.76,4.53a22.17,22.17,0,0,1-2.13,6.3A20.42,20.42,0,0,1,50.87,78a18.23,18.23,0,0,1-5.34,3.61A16.27,16.27,0,0,1,39,83Zm.4-.68H39A15.59,15.59,0,0,0,45.26,81a17.55,17.55,0,0,0,5.14-3.48,19.75,19.75,0,0,0,3.72-5.06,21.49,21.49,0,0,0,2.07-6.11L57,61.85a18.43,18.43,0,0,0,.2-4,14.73,14.73,0,0,0-.71-3.73,13.08,13.08,0,0,0-1.59-3.22,10.79,10.79,0,0,0-2.42-2.54,11.43,11.43,0,0,0-3.25-1.69,13.1,13.1,0,0,0-4-.64H35.6Zm1.22-.69h-.4l6.07-35h9A11.53,11.53,0,0,1,50.65,48a10.74,10.74,0,0,1,3.74,3.43,12.64,12.64,0,0,1,1.9,4.83,16.22,16.22,0,0,1,0,5.58l-.81,4.6a20.32,20.32,0,0,1-2,5.75A18.9,18.9,0,0,1,49.87,77,17.3,17.3,0,0,1,45,80.35a15,15,0,0,1-6,1.3Zm.4-.68H39a14.34,14.34,0,0,0,5.7-1.24,16.62,16.62,0,0,0,4.72-3.19,18.22,18.22,0,0,0,3.46-4.62,19.62,19.62,0,0,0,1.94-5.55l.81-4.6a15.54,15.54,0,0,0,0-5.35,12,12,0,0,0-1.79-4.58,10.06,10.06,0,0,0-3.51-3.21,10.85,10.85,0,0,0-5.17-1.27H36.75Z"/><path class="cls-2" d="M56.31,4H43.22L37.06,39.65H35.69L41.84,4h-13L29,2.62H56.49Z"/><path class="cls-1" d="M37.1,39.69H35.64v0L41.79,4h-13l.19-1.46h27.6L56.35,4H43.25Zm-1.36-.08H37L43.18,4H56.28l.17-1.29H29L28.85,4h13V4Z"/><path class="cls-2" d="M64.19,36.27h-18l-2.95,17h20.5l-.2,1.37H41.59L48,17.6H69.89L69.69,19H49.16L46.39,34.89h18Z"/><path class="cls-1" d="M63.54,54.67h-22v0L48,17.56h22L69.72,19H49.2L46.44,34.85h18l-.19,1.46h-18l-2.94,16.9h20.5Zm-21.91-.08H63.47l.19-1.29H43.16l3-17.07h18l.17-1.29h-18v0l2.78-16H69.65l.19-1.29H48.05Z"/><path class="cls-2" d="M28.32,82.35l6.43-37H44.6a13.37,13.37,0,0,1,4.15.66,11.71,11.71,0,0,1,3.34,1.74,11.08,11.08,0,0,1,2.49,2.62,13.34,13.34,0,0,1,1.63,3.31,15,15,0,0,1,.72,3.81,18.7,18.7,0,0,1-.2,4.11L56,66.1a21.73,21.73,0,0,1-2.1,6.2,20,20,0,0,1-3.79,5.15A17.81,17.81,0,0,1,44.84,81a15.86,15.86,0,0,1-6.42,1.35ZM35.9,46.7,30,81h8.47a14.62,14.62,0,0,0,5.84-1.27,16.88,16.88,0,0,0,4.82-3.26,18.47,18.47,0,0,0,3.52-4.7,19.87,19.87,0,0,0,2-5.65l.81-4.6a15.81,15.81,0,0,0,0-5.47,12.25,12.25,0,0,0-1.84-4.7A10.35,10.35,0,0,0,49.93,48,11.14,11.14,0,0,0,44.6,46.7Z"/><path class="cls-1" d="M38.42,82.39H28.27v0l6.44-37.06H44.6a13.47,13.47,0,0,1,4.16.66,11.81,11.81,0,0,1,3.36,1.75,11.18,11.18,0,0,1,2.5,2.63,13.45,13.45,0,0,1,1.63,3.32A15.12,15.12,0,0,1,57,57.47a18.83,18.83,0,0,1-.2,4.12L56,66.11a21.87,21.87,0,0,1-2.1,6.22,20.12,20.12,0,0,1-3.8,5.16A17.94,17.94,0,0,1,44.86,81,16,16,0,0,1,38.42,82.39Zm-10-.08h10A15.89,15.89,0,0,0,44.82,81,17.85,17.85,0,0,0,50,77.43a20,20,0,0,0,3.78-5.14,21.79,21.79,0,0,0,2.09-6.19l.76-4.53a18.73,18.73,0,0,0,.2-4.1,15,15,0,0,0-.72-3.8,13.36,13.36,0,0,0-1.62-3.3,11.09,11.09,0,0,0-2.48-2.61A11.72,11.72,0,0,0,48.73,46a13.39,13.39,0,0,0-4.13-.66H34.79ZM30,81H29.9v0l6-34.32H44.6A11.23,11.23,0,0,1,49.95,48a10.44,10.44,0,0,1,3.64,3.33A12.35,12.35,0,0,1,55.44,56a15.93,15.93,0,0,1,0,5.48l-.81,4.6a20,20,0,0,1-2,5.66,18.59,18.59,0,0,1-3.53,4.72,17,17,0,0,1-4.83,3.26A14.73,14.73,0,0,1,38.42,81Zm.05-.08h8.42a14.64,14.64,0,0,0,5.82-1.27A16.91,16.91,0,0,0,49,76.42a18.51,18.51,0,0,0,3.51-4.69,19.92,19.92,0,0,0,2-5.63l.81-4.6a15.85,15.85,0,0,0,0-5.45,12.27,12.27,0,0,0-1.84-4.69A10.36,10.36,0,0,0,49.91,48a11.14,11.14,0,0,0-5.31-1.3H35.94Z"/><polygon class="cls-2" points="41.7 54.73 68.83 82.45 71.37 82.45 44.19 54.73 41.7 54.73"/><path class="cls-1" d="M71.49,82.5h-2.7L41.58,54.68h2.64Zm-2.64-.1h2.41L44.16,54.78H41.82Z"/><polygon class="cls-1" points="30.68 55.11 20.19 55.11 25.41 25.54 35.81 25.54 35.5 27.12 26.74 27.12 22.07 53.52 30.95 53.52 30.68 55.11"/><polygon class="cls-1" points="25.71 83.03 14.24 83.03 14.49 81.44 24.38 81.44 29.18 54.57 20.57 54.57 20.57 52.99 31.06 52.99 25.71 83.03"/><polygon class="cls-2" points="34.51 26.63 34.82 25.05 24.43 25.05 19.2 54.62 28.01 54.62 23.34 80.77 13.46 80.77 13.21 82.35 24.67 82.35 29.98 53.04 29.97 53.04 21.09 53.04 25.75 26.63 34.51 26.63"/><path class="cls-1" d="M24.71,82.4H13.15l.26-1.68H23.3L28,54.67H19.14v-.06L24.38,25h10.5l-.33,1.68H25.8L21.15,53H30V53Zm-11.45-.1H24.63l5.29-29.22H21V53l4.67-26.45h8.76l.29-1.48H24.47L19.26,54.57h8.81v.06L23.39,80.82H13.5Z"/></g></svg>