<svg xmlns="http://www.w3.org/2000/svg" viewBox="0 0 305.75 161.77"><defs><style>.cls-1{fill:#231f20;}.cls-2{fill:#fff;}</style></defs><title>logo</title><g id="Layer_4" data-name="Layer 4"><polygon class="cls-1" points="70.97 104.69 122.31 157.16 127.13 157.16 75.68 104.69 70.97 104.69"/><path class="cls-1" d="M127.42,157.29h-5.17l0,0L70.68,104.57h5.05Zm-5.06-.25h4.47L75.62,104.82H71.27Z"/><path d="M97.19,8.55H72.41L60.76,76h-2.6L69.81,8.55H45.12L45.45,6H97.53Z"/><path d="M61.3,76.67H57.4L69,9.2H44.39l.5-3.88H98.26l-.5,3.88H72.95Zm-2.38-1.29h1.29L71.86,7.91H96.63L96.8,6.6H46l-.17,1.31H70.57Z"/><path d="M112.1,69.64H78L72.4,101.79h38.79l-.38,2.6H69.32L81.49,34.31h41.39l-.39,2.6H83.66L78.41,67h34Z"/><path class="cls-1" d="M111.36,105H69.54l-.88-.85L81,33.67h42.68l-.58,3.88H84.2l-5,28.84h34l-.5,3.88H78.52l-5.36,30.87h38.77Zm-41.28-1.29h40.17l.19-1.31H71.63L77.44,69h34.1l.17-1.31H77.65l5.47-31.41h38.83l.19-1.31H82Z"/><path d="M44.22,156.86,56.39,86.78H75A25.3,25.3,0,0,1,82.86,88a22.17,22.17,0,0,1,6.33,3.3,21,21,0,0,1,4.72,5A25.25,25.25,0,0,1,97,102.54a28.41,28.41,0,0,1,1.37,7.22,35.38,35.38,0,0,1-.39,7.77l-1.44,8.57a41.13,41.13,0,0,1-4,11.74,37.83,37.83,0,0,1-7.17,9.75,33.7,33.7,0,0,1-9.91,6.71,30,30,0,0,1-12.15,2.55ZM58.56,89.38,47.3,154.26h16a27.67,27.67,0,0,0,11-2.41,31.94,31.94,0,0,0,9.12-6.16,35,35,0,0,0,6.67-8.9,37.61,37.61,0,0,0,3.73-10.68l1.54-8.71a29.92,29.92,0,0,0,0-10.35A23.18,23.18,0,0,0,92,98.14a19.59,19.59,0,0,0-6.86-6.28A21.07,21.07,0,0,0,75,89.38Z"/><path class="cls-1" d="M44.22,157.5h-.76l12.4-71.36H75a26.07,26.07,0,0,1,8.05,1.29,22.91,22.91,0,0,1,6.51,3.39,21.71,21.71,0,0,1,4.86,5.11,26,26,0,0,1,3.16,6.41,29.19,29.19,0,0,1,1.4,7.38,36.19,36.19,0,0,1-.39,7.91l-1.44,8.57a42,42,0,0,1-4,11.93,38.65,38.65,0,0,1-7.29,9.91,34.51,34.51,0,0,1-10.1,6.84,30.8,30.8,0,0,1-12.41,2.61Zm.76-1.29H63.32a29.51,29.51,0,0,0,11.89-2.49,33.22,33.22,0,0,0,9.73-6.59,37.37,37.37,0,0,0,7-9.58A40.67,40.67,0,0,0,95.9,126l1.44-8.56a34.89,34.89,0,0,0,.38-7.63,27.89,27.89,0,0,0-1.34-7.06,24.75,24.75,0,0,0-3-6.1,20.43,20.43,0,0,0-4.57-4.81,21.63,21.63,0,0,0-6.15-3.2A24.78,24.78,0,0,0,75,87.42H56.93Zm2.32-1.31h-.76L58,88.74H75a21.81,21.81,0,0,1,10.4,2.56,20.32,20.32,0,0,1,7.08,6.49,23.93,23.93,0,0,1,3.59,9.15,30.7,30.7,0,0,1,0,10.57l-1.54,8.71a38.45,38.45,0,0,1-3.79,10.87,35.77,35.77,0,0,1-6.79,9.07,32.74,32.74,0,0,1-9.3,6.28,28.43,28.43,0,0,1-11.3,2.46Zm.76-1.29H63.32a27.14,27.14,0,0,0,10.78-2.35,31.46,31.46,0,0,0,8.94-6,34.49,34.49,0,0,0,6.54-8.74A37.14,37.14,0,0,0,93.25,126l1.54-8.7a29.42,29.42,0,0,0,0-10.12,22.66,22.66,0,0,0-3.39-8.66,19,19,0,0,0-6.64-6.08A20.54,20.54,0,0,0,75,90H59.1Z"/><path class="cls-2" d="M96.13,7.92H71.35L59.7,75.4H57.1L68.75,7.92H44.06l.34-2.6H96.47Z"/><path class="cls-1" d="M59.77,75.48H57l0-.09L68.65,8H44l.36-2.76H96.56L96.2,8H71.42Zm-2.57-.16h2.44L71.28,7.84H96.06l.32-2.44H44.47l-.32,2.44H68.84l0,.09Z"/><path class="cls-2" d="M111,69H76.92l-5.58,32.15h38.79l-.38,2.6H68.26L80.43,33.67h41.39l-.39,2.6H82.6L77.35,66.4h34Z"/><path class="cls-1" d="M109.82,103.83H68.16l0-.09L80.37,33.59h41.55l-.41,2.76H82.67l-5.22,30h34l-.36,2.76H77l-5.55,32h38.79Zm-41.46-.16h41.32l.36-2.44H71.24l5.61-32.31H111l.32-2.44h-34l0-.09,5.26-30.2h38.84l.36-2.44H80.5Z"/><path class="cls-2" d="M43.16,156.22,55.33,86.15H74a25.3,25.3,0,0,1,7.85,1.25,22.17,22.17,0,0,1,6.33,3.3,21,21,0,0,1,4.72,5,25.25,25.25,0,0,1,3.08,6.26,28.41,28.41,0,0,1,1.37,7.22,35.38,35.38,0,0,1-.39,7.77l-1.44,8.57a41.13,41.13,0,0,1-4,11.74A37.83,37.83,0,0,1,84.33,147a33.7,33.7,0,0,1-9.91,6.71,30,30,0,0,1-12.15,2.55ZM57.5,88.74,46.24,153.62h16a27.67,27.67,0,0,0,11-2.41,31.94,31.94,0,0,0,9.12-6.16,35,35,0,0,0,6.67-8.9,37.61,37.61,0,0,0,3.73-10.68l1.54-8.71a29.92,29.92,0,0,0,0-10.35,23.18,23.18,0,0,0-3.49-8.9A19.59,19.59,0,0,0,84,91.22,21.07,21.07,0,0,0,74,88.74Z"/><path class="cls-1" d="M62.27,156.3H43.06l0-.09L55.27,86.07H74a25.5,25.5,0,0,1,7.87,1.26,22.35,22.35,0,0,1,6.35,3.31,21.16,21.16,0,0,1,4.73,5A25.45,25.45,0,0,1,96,101.88a28.61,28.61,0,0,1,1.38,7.24,35.63,35.63,0,0,1-.39,7.79l-1.44,8.57a41.38,41.38,0,0,1-4,11.77A38.08,38.08,0,0,1,84.39,147a34,34,0,0,1-9.94,6.73A30.24,30.24,0,0,1,62.27,156.3Zm-19-.16h19a30.07,30.07,0,0,0,12.12-2.54,33.77,33.77,0,0,0,9.89-6.7,37.93,37.93,0,0,0,7.16-9.73,41.23,41.23,0,0,0,4-11.72l1.44-8.57a35.46,35.46,0,0,0,.38-7.75,28.45,28.45,0,0,0-1.37-7.2,25.29,25.29,0,0,0-3.07-6.24,21,21,0,0,0-4.7-4.94,22.19,22.19,0,0,0-6.31-3.28A25.33,25.33,0,0,0,74,86.23H55.4Zm3-2.44h-.1l0-.09L57.43,88.66H74a21.25,21.25,0,0,1,10.12,2.49A19.76,19.76,0,0,1,91,97.46a23.38,23.38,0,0,1,3.5,8.93,30.14,30.14,0,0,1,0,10.38l-1.54,8.71a37.87,37.87,0,0,1-3.74,10.71,35.19,35.19,0,0,1-6.68,8.92,32.16,32.16,0,0,1-9.14,6.18,27.88,27.88,0,0,1-11.08,2.41Zm.1-.16H62.27a27.72,27.72,0,0,0,11-2.4,32,32,0,0,0,9.1-6.15A35,35,0,0,0,89,136.11a37.7,37.7,0,0,0,3.72-10.66l1.54-8.71a30,30,0,0,0,0-10.32,23.21,23.21,0,0,0-3.48-8.87A19.6,19.6,0,0,0,84,91.29a21.09,21.09,0,0,0-10-2.47H57.57Z"/><polygon class="cls-2" points="68.48 103.94 119.81 156.41 124.63 156.41 73.18 103.94 68.48 103.94"/><path class="cls-1" d="M124.85,156.51h-5.08l0,0L68.25,103.85h5l0,0Zm-5-.19h4.56L73.14,104H68.7Z"/><polygon class="cls-1" points="47.62 104.66 27.76 104.66 37.65 48.69 57.33 48.69 56.74 51.69 40.16 51.69 31.33 101.66 48.13 101.66 47.62 104.66"/><polygon class="cls-1" points="38.21 157.5 16.51 157.5 16.98 154.5 35.69 154.5 44.77 103.64 28.48 103.64 28.48 100.64 48.34 100.64 38.21 157.5"/><polygon class="cls-2" points="54.87 50.76 55.46 47.76 35.78 47.76 25.89 103.73 42.57 103.73 33.74 153.23 15.03 153.23 14.56 156.22 36.25 156.22 46.3 100.74 46.27 100.74 29.47 100.74 38.3 50.76 54.87 50.76"/><path class="cls-1" d="M36.33,156.32H14.45l.5-3.18H33.66l8.8-49.3H25.78l0-.11,9.9-56H55.58l-.63,3.18H38.38l-8.8,49.79H46.42l0,.11Zm-21.66-.19H36.17l10-55.3H29.36l0-.11,8.84-50.05H54.79l.55-2.81H35.86L26,103.64H42.68l0,.11-8.85,49.57H15.11Z"/><path d="M170.88,40.26H160.61V73.67h-2.85V40.26H147.53V37.58h23.35Z"/><path d="M193.5,56.39h-14V71h16.11v2.63H176.67V37.58h18.81v2.68h-16V53.76h14Z"/><path d="M201.91,73.67V37.58h8.5a14,14,0,0,1,5.22.94,10.9,10.9,0,0,1,4.05,2.78,12.71,12.71,0,0,1,2.61,4.54,19,19,0,0,1,.93,6.2v7.21a19,19,0,0,1-.93,6.2A12.48,12.48,0,0,1,219.66,70a11,11,0,0,1-4.1,2.76,14.58,14.58,0,0,1-5.35.94Zm2.83-33.41V71h5.48a11.42,11.42,0,0,0,4.32-.77A8.38,8.38,0,0,0,217.74,68a10,10,0,0,0,2-3.71,17.12,17.12,0,0,0,.68-5.06V52a16.83,16.83,0,0,0-.69-5.08,10.17,10.17,0,0,0-2-3.66A8.12,8.12,0,0,0,214.6,41a11.21,11.21,0,0,0-4.19-.74Z"/><path d="M171.49,124.13q-.4,6.07-3.27,8.91t-8,2.84a10.61,10.61,0,0,1-4.7-1,9.85,9.85,0,0,1-3.56-2.92,13.92,13.92,0,0,1-2.26-4.65,22.22,22.22,0,0,1-.79-6.18v-7.76a21.64,21.64,0,0,1,.79-6.1,13.28,13.28,0,0,1,2.28-4.57,10,10,0,0,1,3.62-2.87,11.22,11.22,0,0,1,4.83-1,13,13,0,0,1,4.4.69,8.79,8.79,0,0,1,3.36,2.13,10.12,10.12,0,0,1,2.23,3.67,19.06,19.06,0,0,1,1,5.31h-2.88a18.31,18.31,0,0,0-.77-4.21,7.62,7.62,0,0,0-1.57-2.83,5.87,5.87,0,0,0-2.44-1.59,10.24,10.24,0,0,0-3.35-.5,8.21,8.21,0,0,0-3.72.81,7.45,7.45,0,0,0-2.71,2.32,10.69,10.69,0,0,0-1.66,3.72,20.37,20.37,0,0,0-.56,5v7.81a21.66,21.66,0,0,0,.53,5,11.78,11.78,0,0,0,1.59,3.83,7.18,7.18,0,0,0,6.31,3.32,11.8,11.8,0,0,0,3.47-.46,5.72,5.72,0,0,0,2.5-1.52,7.38,7.38,0,0,0,1.6-2.81,18.28,18.28,0,0,0,.78-4.32Z"/><path d="M201.19,135.38h-2.85V118.11h-17v17.27h-2.83V99.3h2.83v16.18h17V99.3h2.85Z"/><path d="M226.61,125.3H213.08L210,135.38h-2.95l11.5-36.09h2.63l11.5,36.09h-2.95Zm-12.71-2.65h11.9l-5.95-19.36Z"/><path d="M260.74,135.38h-2.83l-17-30.73v30.73H238V99.3h2.85l17.05,30.78V99.3h2.8Z"/><path d="M291.3,131.2a15,15,0,0,1-1.21,1.34,10.18,10.18,0,0,1-2.07,1.54,14,14,0,0,1-3.09,1.28,14.93,14.93,0,0,1-4.21.53,12.6,12.6,0,0,1-4.92-.93,10.05,10.05,0,0,1-3.79-2.76,12.94,12.94,0,0,1-2.44-4.55,20.63,20.63,0,0,1-.87-6.28v-8.28a22.1,22.1,0,0,1,.78-6.17,12.35,12.35,0,0,1,2.27-4.47,9.48,9.48,0,0,1,3.64-2.71,12.43,12.43,0,0,1,4.91-.92,13.15,13.15,0,0,1,4.52.72,9.13,9.13,0,0,1,3.35,2.08,9.55,9.55,0,0,1,2.16,3.36,15.21,15.21,0,0,1,1,4.52h-2.83a14.47,14.47,0,0,0-.73-3.35,7.18,7.18,0,0,0-1.51-2.53,6.33,6.33,0,0,0-2.43-1.59,9.84,9.84,0,0,0-3.46-.54q-4.41,0-6.61,2.94T271.52,113v8.33a18.45,18.45,0,0,0,.65,5.14,10.72,10.72,0,0,0,1.83,3.72,7.7,7.7,0,0,0,2.89,2.27,9.18,9.18,0,0,0,3.83.77,11.88,11.88,0,0,0,3-.35,11.26,11.26,0,0,0,2.26-.83,8,8,0,0,0,1.54-1q.6-.51.92-.83v-9.39h-7.91v-2.65H291.3Z"/></g></svg>