<?xml version="1.0" encoding="UTF-8"?>
<svg width="23px" height="20px" viewBox="0 0 23 20" version="1.1" xmlns="http://www.w3.org/2000/svg" xmlns:xlink="http://www.w3.org/1999/xlink">
    <!-- Generator: Sketch 53 (72520) - https://sketchapp.com -->
    <title>vimeo</title>
    <desc>Created with Sketch.</desc>
    <g id="Page-1" stroke="none" stroke-width="1" fill="none" fill-rule="evenodd">
        <g id="vimeo" fill="#DBDBDB" fill-rule="nonzero">
            <path d="M21.045,8.33796 C18.79836,13.1376 13.37496,19.67144 9.94704,19.67144 C6.5688,19.67144 6.08028,12.46692 4.23568,7.67188 C3.32764,5.31208 2.7416,5.85396 1.0396,7.04536 L0.00184,5.70676 C2.484,3.52452 4.968,0.98992 6.49428,0.84916 C8.21284,0.68448 9.27084,1.85932 9.66644,4.3746 C10.189,7.68016 10.91948,12.811 12.1946,12.811 C13.1882,12.811 15.63632,8.74092 15.76236,7.28548 C15.98592,5.15476 14.1956,5.09036 12.64172,5.75552 C15.10088,-2.29816 25.33128,-0.81512 21.045,8.33796 Z" id="Path"></path>
        </g>
    </g>
</svg>